<svg width="16" height="16" viewBox="0 0 16 16" fill="none" xmlns="http://www.w3.org/2000/svg">
<path d="M10 3.49982H3C2.46957 3.49982 1.96086 3.71053 1.58579 4.0856C1.21071 4.46068 1 4.96938 1 5.49982V13.4993C1 14.0297 1.21071 14.5384 1.58579 14.9135C1.96086 15.2886 2.46957 15.4993 3 15.4993H11.0857C11.6161 15.4993 12.1248 15.2886 12.4999 14.9135C12.875 14.5384 13.0857 14.0297 13.0857 13.4993L12.9999 6.5M11.9999 1H15.5M15.5 1L15.4999 4.5M15.5 1L13.9999 2.5L13.2499 3.25L12.4999 4M6.9974 5.49982V5.99982M9.99552 11.4998H10.9949M7.99677 11.4998H6.9974V13.4998M6.9974 7.99982V9.49982M6.9974 9.49982H7.00239M6.9974 9.49982H9.00114M8.99615 13.4998H10.9949M2.9999 9.49982H4.99865M10.9949 9.49982H10.9999M3.49958 7.49982H4.49896C4.63148 7.49982 4.75858 7.44714 4.85229 7.35337C4.946 7.2596 4.99865 7.13243 4.99865 6.99982V5.99982C4.99865 5.86721 4.946 5.74003 4.85229 5.64626C4.75858 5.5525 4.63148 5.49982 4.49896 5.49982H3.49958C3.36706 5.49982 3.23996 5.5525 3.14625 5.64626C3.05254 5.74003 2.9999 5.86721 2.9999 5.99982V6.99982C2.9999 7.13243 3.05254 7.2596 3.14625 7.35337C3.23996 7.44714 3.36706 7.49982 3.49958 7.49982ZM9.49584 7.49982H10.4952C10.6277 7.49982 10.7548 7.44714 10.8485 7.35337C10.9423 7.2596 10.9949 7.13243 10.9949 6.99982V5.99982C10.9949 5.86721 10.9423 5.74003 10.8485 5.64626C10.7548 5.5525 10.6277 5.49982 10.4952 5.49982H9.49584C9.36331 5.49982 9.23621 5.5525 9.1425 5.64626C9.04879 5.74003 8.99615 5.86721 8.99615 5.99982V6.99982C8.99615 7.13243 9.04879 7.2596 9.1425 7.35337C9.23621 7.44714 9.36331 7.49982 9.49584 7.49982ZM3.49958 13.4998H4.49896C4.63148 13.4998 4.75858 13.4471 4.85229 13.3534C4.946 13.2596 4.99865 13.1324 4.99865 12.9998V11.9998C4.99865 11.8672 4.946 11.74 4.85229 11.6463C4.75858 11.5525 4.63148 11.4998 4.49896 11.4998H3.49958C3.36706 11.4998 3.23996 11.5525 3.14625 11.6463C3.05254 11.74 2.9999 11.8672 2.9999 11.9998V12.9998C2.9999 13.1324 3.05254 13.2596 3.14625 13.3534C3.23996 13.4471 3.36706 13.4998 3.49958 13.4998Z" stroke="#272343" stroke-linecap="round" stroke-linejoin="round"/>
</svg>
